<?xml version="1.0" encoding="utf-8"?>
<!-- Generator: Adobe Illustrator 25.2.1, SVG Export Plug-In . SVG Version: 6.00 Build 0)  -->
<svg version="1.1" id="Camada_1" xmlns="http://www.w3.org/2000/svg" xmlns:xlink="http://www.w3.org/1999/xlink" x="0px" y="0px"
	 viewBox="0 0 300 242" style="enable-background:new 0 0 300 242;" xml:space="preserve">
<style type="text/css">
	.st0{fill:#FFFFFF;}
	.st1{fill:#265787;}
	.st2{fill:#EA7600;}
</style>
<g transform="matrix(.281 0 0 .281 -41.8 -43.7)">
	<g transform="matrix(21.6 0 0 21.6 -4857 7665)">
		<path class="st0" d="M250.3-325c0.2-3.2,1.7-5.9,4.1-7.9c2.3-1.9,5.4-3.1,8.7-3.1c3.4,0,6.4,1.2,8.7,3.1c2.3,2,3.9,4.8,4.1,7.9
			c0.2,3.2-1.1,6.3-3.4,8.5c-2.3,2.3-5.6,3.7-9.4,3.7s-7.1-1.4-9.4-3.7C251.5-318.8,250.2-321.8,250.3-325L250.3-325z"/>
	</g>
	<g transform="matrix(11.1 0 0 11.1 -2215 4153)">
		<path class="st1" d="M262.8-316.8c0.2-3.2,1.7-5.9,4.1-7.9c2.3-1.9,5.4-3.1,8.7-3.1c3.4,0,6.4,1.2,8.7,3.1c2.3,2,3.9,4.8,4.1,7.9
			c0.2,3.2-1.1,6.3-3.4,8.5c-2.3,2.3-5.6,3.7-9.4,3.7s-7.1-1.4-9.4-3.7C263.9-310.6,262.6-313.6,262.8-316.8L262.8-316.8z"/>
		<path class="st2" d="M242.7-310.2c0,1.2,0.4,3.6,1,5.5c1.2,4,3.4,7.7,6.3,10.9c3,3.3,6.7,6,11,7.9c4.5,2,9.4,3,14.4,3
			c5.1,0,9.9-1,14.4-3.1c4.3-1.9,8-4.6,11-7.9c2.9-3.3,5-6.9,6.3-10.9c0.6-2,1-4,1.2-6.1c0.2-2,0.1-4-0.2-6c-0.6-3.9-1.9-7.6-4-11
			c-1.9-3.1-4.4-5.8-7.3-8.1l0,0l-29.6-22.7c0,0,0,0-0.1-0.1c-1.9-1.5-5.2-1.5-7.3,0c-2.2,1.5-2.4,4-0.5,5.6l0,0l12.3,10l-37.6,0
			H234c-3.1,0-6.1,2-6.7,4.6c-0.6,2.6,1.5,4.8,4.7,4.8l0,0l19,0l-34.1,26.1c0,0-0.1,0.1-0.1,0.1c-3.2,2.5-4.2,6.5-2.2,9.1
			c2.1,2.6,6.4,2.6,9.7,0l18.5-15.2C242.9-313.5,242.6-311.5,242.7-310.2L242.7-310.2z M290.5-303.3c-3.8,3.9-9.2,6.1-15,6.1
			c-5.8,0-11.2-2.2-15-6.1c-1.9-1.9-3.2-4.1-4.1-6.4c-0.8-2.3-1.2-4.7-0.9-7.2c0.2-2.4,0.9-4.7,2.1-6.7c1.1-2,2.7-3.9,4.5-5.4
			c3.7-3,8.5-4.7,13.4-4.7c5,0,9.7,1.6,13.4,4.6c1.9,1.5,3.4,3.4,4.5,5.4c1.1,2.1,1.9,4.3,2.1,6.7c0.2,2.4-0.1,4.9-0.9,7.2
			C293.7-307.4,292.4-305.2,290.5-303.3L290.5-303.3z"/>
	</g>
</g>
</svg>
