<?xml version="1.0" encoding="utf-8"?>
<!-- Generator: Adobe Illustrator 25.2.1, SVG Export Plug-In . SVG Version: 6.00 Build 0)  -->
<svg version="1.1" id="Camada_1" xmlns="http://www.w3.org/2000/svg" xmlns:xlink="http://www.w3.org/1999/xlink" x="0px" y="0px"
	 viewBox="0 0 220 245" style="enable-background:new 0 0 220 245;" xml:space="preserve">
<style type="text/css">
	.st0{fill:#A179DC;}
	.st1{fill:#280068;}
	.st2{fill:#390091;}
	.st3{fill:#FFFFFF;}
</style>
<g>
	<path class="st0" d="M216.8,73.1c0-4-0.9-7.6-2.6-10.7c-1.7-3-4.3-5.5-7.7-7.5C178,38.5,149.5,22.1,121.1,5.7
		C113.5,1.3,106,1.5,98.4,6c-11.3,6.7-68,39.1-84.8,48.9c-7,4-10.3,10.2-10.3,18.2c0,33,0,65.9,0,98.9c0,3.9,0.8,7.4,2.5,10.5
		c1.7,3.1,4.3,5.7,7.8,7.7c16.9,9.8,73.5,42.2,84.9,48.9c7.6,4.5,15,4.6,22.7,0.2c28.4-16.4,56.9-32.8,85.3-49.1
		c3.5-2,6.1-4.6,7.8-7.7c1.7-3,2.5-6.5,2.5-10.5C216.8,171.9,216.8,106,216.8,73.1"/>
	<path class="st1" d="M110.3,122.2L5.7,182.4c1.7,3.1,4.3,5.7,7.8,7.7c16.9,9.8,73.5,42.2,84.9,48.9c7.6,4.5,15,4.6,22.7,0.2
		c28.4-16.4,56.9-32.8,85.3-49.1c3.5-2,6.1-4.6,7.8-7.7L110.3,122.2z"/>
	<path class="st2" d="M216.8,73.1c0-4-0.9-7.6-2.6-10.7l-103.8,59.8l103.9,60.2c1.7-3,2.5-6.5,2.5-10.5
		C216.8,171.9,216.8,106,216.8,73.1"/>
	<g>
		<path class="st3" d="M171.9,99.7v11.3h11.3V99.7h5.6v11.3h11.3v5.6h-11.3v11.3h11.3v5.6h-11.3v11.3h-5.6v-11.3h-11.3v11.3h-5.6
			v-11.3H155v-5.6h11.3v-11.3H155v-5.6h11.3V99.7L171.9,99.7z M183.2,116.6h-11.3v11.3h11.3V116.6z"/>
		<path class="st3" d="M110.6,43.1c29.4,0,55,15.9,68.7,39.6l-0.1-0.2l-34.5,19.9C137.8,90.9,125.3,83.1,111,83l-0.5,0
			C88.7,83,71,100.7,71,122.5c0,6.9,1.8,13.6,5.2,19.6C83.1,154,95.9,162,110.6,162c14.8,0,27.7-8.1,34.4-20.1l-0.2,0.3l34.5,20
			c-13.6,23.5-38.9,39.4-67.9,39.7l-0.9,0c-29.5,0-55.2-16-68.9-39.9c-6.7-11.6-10.5-25.1-10.5-39.5C31.2,78.7,66.7,43.1,110.6,43.1
			L110.6,43.1z"/>
	</g>
</g>
</svg>
