<?xml version="1.0" encoding="utf-8"?>
<!-- Generator: Adobe Illustrator 25.2.1, SVG Export Plug-In . SVG Version: 6.00 Build 0)  -->
<svg version="1.1" id="Camada_1" xmlns="http://www.w3.org/2000/svg" xmlns:xlink="http://www.w3.org/1999/xlink" x="0px" y="0px"
	 viewBox="0 0 242 240" style="enable-background:new 0 0 242 240;" xml:space="preserve">
<style type="text/css">
	.st0{fill:url(#SVGID_1_);}
	.st1{fill:url(#SVGID_2_);}
</style>
<g>
	
		<linearGradient id="SVGID_1_" gradientUnits="userSpaceOnUse" x1="-382.6801" y1="625.7157" x2="-373.1863" y2="616.1901" gradientTransform="matrix(12.5 0 0 -12.5 4807 7843.5)">
		<stop  offset="0" style="stop-color:#387EB8"/>
		<stop  offset="1" style="stop-color:#366994"/>
	</linearGradient>
	<path class="st0" d="M120.1,0.6C59.2,0.6,63,27,63,27l0.1,27.4h58.1v8.2H40c0,0-39-4.4-39,57.1C1,181.2,35,179,35,179h20.3v-28.5
		c0,0-1.1-34,33.5-34h57.7c0,0,32.4,0.5,32.4-31.3V32.5C178.9,32.5,183.8,0.6,120.1,0.6z M88.1,19c5.8,0,10.5,4.7,10.5,10.5
		S93.9,40,88.1,40c-5.8,0-10.5-4.7-10.5-10.4c0,0,0,0,0,0C77.6,23.7,82.3,19,88.1,19z"/>
	
		<linearGradient id="SVGID_2_" gradientUnits="userSpaceOnUse" x1="-376.8417" y1="619.6516" x2="-366.6453" y2="609.8829" gradientTransform="matrix(12.5 0 0 -12.5 4807 7843.5)">
		<stop  offset="0" style="stop-color:#FFE052"/>
		<stop  offset="1" style="stop-color:#FFC331"/>
	</linearGradient>
	<path class="st1" d="M121.9,239.4c60.9,0,57.1-26.4,57.1-26.4l-0.1-27.4h-58.1v-8.2H202c0,0,39,4.4,39-57.1S207,61,207,61h-20.3
		v28.5c0,0,1.1,34-33.5,34H95.5c0,0-32.4-0.5-32.4,31.3v52.6C63.1,207.5,58.2,239.4,121.9,239.4z M153.9,221
		c-5.8,0-10.5-4.7-10.5-10.4c0,0,0,0,0,0c0-5.8,4.7-10.5,10.5-10.5s10.5,4.7,10.5,10.5C164.4,216.3,159.7,221,153.9,221z"/>
</g>
</svg>
